<svg width="241" height="63" viewBox="0 0 241 63" fill="none" xmlns="http://www.w3.org/2000/svg">
<path d="M29.536 17.8C32.752 17.8 35.272 18.568 37.096 20.104C38.92 21.64 39.832 23.752 39.832 26.44C39.832 29.128 38.92 31.24 37.096 32.776C35.272 34.288 32.752 35.044 29.536 35.044H22.768V43H20.104L20.104 17.8H29.536ZM29.464 32.704C31.96 32.704 33.868 32.164 35.188 31.084C36.508 29.98 37.168 28.432 37.168 26.44C37.168 24.4 36.508 22.84 35.188 21.76C33.868 20.656 31.96 20.104 29.464 20.104H22.768L22.768 32.704H29.464ZM56.9598 43.216C54.4638 43.216 52.1958 42.664 50.1558 41.56C48.1398 40.432 46.5558 38.896 45.4038 36.952C44.2758 35.008 43.7118 32.824 43.7118 30.4C43.7118 27.976 44.2758 25.792 45.4038 23.848C46.5558 21.904 48.1398 20.38 50.1558 19.276C52.1958 18.148 54.4638 17.584 56.9598 17.584C59.4558 17.584 61.6998 18.136 63.6918 19.24C65.7078 20.344 67.2918 21.88 68.4438 23.848C69.5958 25.792 70.1718 27.976 70.1718 30.4C70.1718 32.824 69.5958 35.02 68.4438 36.988C67.2918 38.932 65.7078 40.456 63.6918 41.56C61.6998 42.664 59.4558 43.216 56.9598 43.216ZM56.9598 40.84C58.9518 40.84 60.7518 40.396 62.3598 39.508C63.9678 38.596 65.2278 37.348 66.1398 35.764C67.0518 34.156 67.5078 32.368 67.5078 30.4C67.5078 28.432 67.0518 26.656 66.1398 25.072C65.2278 23.464 63.9678 22.216 62.3598 21.328C60.7518 20.416 58.9518 19.96 56.9598 19.96C54.9678 19.96 53.1558 20.416 51.5238 21.328C49.9158 22.216 48.6438 23.464 47.7078 25.072C46.7958 26.656 46.3398 28.432 46.3398 30.4C46.3398 32.368 46.7958 34.156 47.7078 35.764C48.6438 37.348 49.9158 38.596 51.5238 39.508C53.1558 40.396 54.9678 40.84 56.9598 40.84ZM83.0911 43.216C81.2191 43.216 79.4191 42.916 77.6911 42.316C75.9871 41.716 74.6671 40.924 73.7311 39.94L74.7751 37.888C75.6871 38.8 76.8991 39.544 78.4111 40.12C79.9231 40.672 81.4831 40.948 83.0911 40.948C85.3471 40.948 87.0391 40.54 88.1671 39.724C89.2951 38.884 89.8591 37.804 89.8591 36.484C89.8591 35.476 89.5471 34.672 88.9231 34.072C88.3231 33.472 87.5791 33.016 86.6911 32.704C85.8031 32.368 84.5671 32.008 82.9831 31.624C81.0871 31.144 79.5751 30.688 78.4471 30.256C77.3191 29.8 76.3471 29.116 75.5311 28.204C74.7391 27.292 74.3431 26.056 74.3431 24.496C74.3431 23.224 74.6791 22.072 75.3511 21.04C76.0231 19.984 77.0551 19.144 78.4471 18.52C79.8391 17.896 81.5671 17.584 83.6311 17.584C85.0711 17.584 86.4751 17.788 87.8431 18.196C89.2351 18.58 90.4351 19.12 91.4431 19.816L90.5431 21.94C89.4871 21.244 88.3591 20.728 87.1591 20.392C85.9591 20.032 84.7831 19.852 83.6311 19.852C81.4231 19.852 79.7551 20.284 78.6271 21.148C77.5231 21.988 76.9711 23.08 76.9711 24.424C76.9711 25.432 77.2711 26.248 77.8711 26.872C78.4951 27.472 79.2631 27.94 80.1751 28.276C81.1111 28.588 82.3591 28.936 83.9191 29.32C85.7671 29.776 87.2551 30.232 88.3831 30.688C89.5351 31.12 90.5071 31.792 91.2991 32.704C92.0911 33.592 92.4871 34.804 92.4871 36.34C92.4871 37.612 92.1391 38.776 91.4431 39.832C90.7711 40.864 89.7271 41.692 88.3111 42.316C86.8951 42.916 85.1551 43.216 83.0911 43.216ZM102.836 20.104H93.9799V17.8L114.356 17.8V20.104L105.5 20.104V43H102.836V20.104ZM129.276 43.216C126.78 43.216 124.512 42.664 122.472 41.56C120.456 40.432 118.872 38.896 117.72 36.952C116.592 35.008 116.028 32.824 116.028 30.4C116.028 27.976 116.592 25.792 117.72 23.848C118.872 21.904 120.456 20.38 122.472 19.276C124.512 18.148 126.78 17.584 129.276 17.584C131.772 17.584 134.016 18.136 136.008 19.24C138.024 20.344 139.608 21.88 140.76 23.848C141.912 25.792 142.488 27.976 142.488 30.4C142.488 32.824 141.912 35.02 140.76 36.988C139.608 38.932 138.024 40.456 136.008 41.56C134.016 42.664 131.772 43.216 129.276 43.216ZM129.276 40.84C131.268 40.84 133.068 40.396 134.676 39.508C136.284 38.596 137.544 37.348 138.456 35.764C139.368 34.156 139.824 32.368 139.824 30.4C139.824 28.432 139.368 26.656 138.456 25.072C137.544 23.464 136.284 22.216 134.676 21.328C133.068 20.416 131.268 19.96 129.276 19.96C127.284 19.96 125.472 20.416 123.84 21.328C122.232 22.216 120.96 23.464 120.024 25.072C119.112 26.656 118.656 28.432 118.656 30.4C118.656 32.368 119.112 34.156 120.024 35.764C120.96 37.348 122.232 38.596 123.84 39.508C125.472 40.396 127.284 40.84 129.276 40.84ZM148.459 17.8H151.123V43H148.459V17.8ZM185.495 17.8V43L182.939 43V22.84L173.039 39.796H171.779L161.879 22.948V43H159.323V17.8H161.519L172.463 36.484L183.299 17.8H185.495ZM201.518 31.156L196.37 36.376V43H193.706V17.8H196.37V33.028L211.166 17.8H214.226L203.318 29.212L214.982 43H211.814L201.518 31.156ZM234.119 36.268H220.079L217.055 43H214.283L225.803 17.8H228.431L239.951 43H237.143L234.119 36.268ZM233.147 34.108L227.099 20.572L221.051 34.108H233.147Z" fill="black"/>
<path d="M3.816 43.18C3.288 43.18 2.832 42.988 2.448 42.604C2.088 42.22 1.908 41.752 1.908 41.2C1.908 40.648 2.088 40.192 2.448 39.832C2.832 39.448 3.288 39.256 3.816 39.256C4.344 39.256 4.8 39.448 5.184 39.832C5.568 40.192 5.76 40.648 5.76 41.2C5.76 41.752 5.568 42.22 5.184 42.604C4.8 42.988 4.344 43.18 3.816 43.18ZM11.4449 43.18C10.9169 43.18 10.4609 42.988 10.0769 42.604C9.71691 42.22 9.53691 41.752 9.53691 41.2C9.53691 40.648 9.71691 40.192 10.0769 39.832C10.4609 39.448 10.9169 39.256 11.4449 39.256C11.9729 39.256 12.4289 39.448 12.8129 39.832C13.1969 40.192 13.3889 40.648 13.3889 41.2C13.3889 41.752 13.1969 42.22 12.8129 42.604C12.4289 42.988 11.9729 43.18 11.4449 43.18Z" fill="black"/>
<circle cx="57" cy="12" r="12" fill="white"/>
<circle cx="129" cy="50" r="13" fill="white"/>
</svg>
